<svg xmlns="http://www.w3.org/2000/svg" version="1.1" xmlns:xlink="http://www.w3.org/1999/xlink"
  xmlns:svgjs="http://svgjs.dev/svgjs" width="100%" height="100%" viewBox="0 0 1000 600">
  <rect width="1000" height="600" x="0" y="0" fill="#ccf381" />
  <g>
    <rect width="333.3333333333333" height="333.3333333333333" rx="13.333333333333334" ry="13.333333333333334"
      y="240.87619663421026" fill="#ffffff"
      transform="matrix(0.5716796017224908,0,0,0.5716796017224909,0,67.01607967104484)" x="218.65396118164062" />
    <path
      d="M273.8535243700117 482.5428555857759L273.8535243700117 332.54285156167634L323.52142958994705 332.54285156167634Q340.39972658504007 332.54285156167634 352.091463566016 337.70010897684364Q363.7832005469919 342.85736639201093 369.9074437275031 352.90815783179727Q376.0609895069641 362.9296466726338 376.0609895069641 377.58094614754094L376.0609895069641 377.58094614754094Q376.0609895069641 387.8661583789258 371.8707178571407 396.3639120743719Q367.70974880626704 404.8616657698181 359.91525748561645 410.7807907576806Q352.1500687639156 416.7292183444929 341.33740975143417 419.6008730415747L341.33740975143417 419.6008730415747L335.76991595096945 421.769265363861L289.0908758239152 421.769265363861L288.8857576312665 405.59423074356346L324.1367841678931 405.59423074356346Q334.83223278457535 405.59423074356346 341.9527643293802 401.8434980779872Q349.07329587418513 398.0634628134612 352.6775155450123 391.6754962424016Q356.28173521583943 385.2875296713421 356.28173521583943 377.58094614754094L356.28173521583943 377.58094614754094Q356.28173521583943 368.9073768583959 352.88263373766097 362.43150249048693Q349.4835322594825 355.9263255236282 342.2164877199286 352.3807110507006Q334.9494431803746 348.8350965777731 323.52142958994705 348.8350965777731L323.52142958994705 348.8350965777731L293.74998905693565 348.8350965777731L293.74998905693565 482.5428555857759L273.8535243700117 482.5428555857759ZM382.7419820675218 482.5428555857759L361.5269004278562 482.5428555857759L325.0451647353374 414.56082602220664L345.7621021928561 414.4436156264074L382.7419820675218 481.3121464298837L382.7419820675218 482.5428555857759ZM403.8691559103379 332.54285156167634L423.7363179983121 332.54285156167634L423.7363179983121 482.5428555857759L403.8691559103379 482.5428555857759L403.8691559103379 332.54285156167634ZM419.4288359526893 400.02673694309874L486.5903927456638 400.02673694309874L486.5903927456638 416.2896793602457L419.4288359526893 416.2896793602457L419.4288359526893 400.02673694309874ZM419.4288359526893 332.54285156167634L496.78769718019913 332.54285156167634L496.78769718019913 348.8350965777731L419.4288359526893 348.8350965777731L419.4288359526893 332.54285156167634Z "
      fill="#ccf381" transform="matrix(0.5716796017224908,0,0,0.5716796017224909,0,67.01607967104484)" />
    <path
      d="M635.3206112046119 450.5670234176576L635.3206112046119 338.6844727299339L672.3670896995702 338.6844727299339Q684.9563354890074 338.6844727299339 693.6770109577321 342.53118672115073Q702.3976864264569 346.37790071236765 706.9656592910269 353.8746217293415Q711.5554884850925 361.34948641681984 711.5554884850925 372.27765116459517L711.5554884850925 372.27765116459517Q711.5554884850925 379.94922281753344 708.4300333672288 386.28755837124316Q705.3264345788606 392.62589392495283 699.5126509330441 397.04087248305405Q693.7207236167231 401.4777073706508 685.655738032865 403.6196276612148L685.655738032865 403.6196276612148L681.5030354287103 405.2369960438856L646.6859025422982 405.2369960438856L646.5329082358294 393.1723021623416L672.8260726189767 393.1723021623416Q680.8036328848527 393.1723021623416 686.1147209522716 390.3746919869111Q691.4258090196904 387.5552254819851 694.1141375476432 382.79054565195503Q696.8024660755958 378.025865821925 696.8024660755958 372.27765116459517L696.8024660755958 372.27765116459517Q696.8024660755958 365.8081776339122 694.267131854112 360.9779288153955Q691.7317976326281 356.12582366738326 686.3114279177315 353.4812077984216Q680.891058202835 350.83659192946 672.3670896995702 350.83659192946L672.3670896995702 350.83659192946L650.1610589320908 350.83659192946L650.1610589320908 450.5670234176576L635.3206112046119 450.5670234176576ZM716.538731610078 450.5670234176576L700.7147490552993 450.5670234176576L673.5036188333388 399.8603389879801L688.9560437866932 399.77291366999793L716.538731610078 449.64905757884446L716.538731610078 450.5670234176576ZM764.6445128297851 452.09696648234615L764.6445128297851 452.09696648234615Q755.9675500200515 452.09696648234615 748.9298119224841 449.1463620004468Q741.8920738249168 446.19575751854745 736.8651180409402 440.81910046264204Q731.8381622569635 435.420587077241 729.1498337290108 428.05500403724045Q726.4615052010581 420.66756466774433 726.4615052010581 411.92503286952405L726.4615052010581 411.92503286952405L726.4615052010581 408.6902961041826Q726.4615052010581 398.5489592182471 729.4558223419485 390.5932552818666Q732.450139482839 382.6375513454862 737.5863769142933 377.1078999831119Q742.7444706752433 371.57824862073755 749.279513194413 368.73692578631596Q755.8145557135825 365.8956029518944 762.8085811521588 365.8956029518944L762.8085811521588 365.8956029518944Q771.7041072568479 365.8956029518944 778.1954371170265 368.9554890812715Q784.7086233067006 372.03723154014415 788.8394695813596 377.5231702435273Q792.9921721855142 383.0309652764061 795.0029544991049 390.4402609753978Q796.9918804832 397.8495566743894 796.9918804832 406.61394480210527L796.9918804832 406.61394480210527L796.9918804832 412.99599301480606L734.8980483863406 412.99599301480606L734.8980483863406 401.3902820526687L782.7852663110921 401.3902820526687L782.7852663110921 400.31932190738667Q782.4792776981544 394.78967054501237 780.5122080435549 389.56600779557573Q778.5451383889553 384.34234504613914 774.326866796314 380.95461397432877Q770.1085952036727 377.56688290251844 762.8085811521588 377.56688290251844L762.8085811521588 377.56688290251844Q757.9564760041466 377.56688290251844 753.8911987179741 379.59952154560466Q749.8040651023061 381.6321601886909 746.8971732793979 385.6318684863766Q743.9684251269941 389.6315767840624 742.3510567443234 395.4016477708878Q740.7555446911482 401.1498624282176 740.7555446911482 408.6902961041826L740.7555446911482 408.6902961041826L740.7555446911482 411.92503286952405Q740.7555446911482 417.82624183332274 742.3947694033145 423.0280482532638Q744.0558504449764 428.2079983437093 747.2468745513268 432.1202813234129Q750.4378986576771 436.054420632612 755.0058715222472 438.2619099116626Q759.5738443868173 440.49125552020877 765.4094843621293 440.49125552020877L765.4094843621293 440.49125552020877Q772.9499180380942 440.49125552020877 778.1735807875309 437.43136939083166Q783.3972435369675 434.34962693195905 787.3095265166711 429.2133895005046L787.3095265166711 429.2133895005046L795.920920337918 436.054420632612Q793.2325918099652 440.11969791878437 789.0798892058107 443.81341760353246Q784.9271866016561 447.485280958785 778.894839660884 449.80205188531335Q772.8624927201121 452.09696648234615 764.6445128297851 452.09696648234615ZM846.8680243920466 440.42568653172214L846.8680243920466 440.42568653172214Q851.9386928350143 440.42568653172214 856.2443897456378 438.3493352296448Q860.5282303267658 436.27298392756745 863.3039841727007 432.62297690181055Q866.0797380186356 428.9729698760536 866.4512956200599 424.29571536400573L866.4512956200599 424.29571536400573L879.9803635778057 424.29571536400573Q879.586949646886 431.6612984040063 875.0189767823158 437.999633957716Q870.4510039177458 444.3379695114257 863.0635645482496 448.22839616163367Q855.6979815082491 452.09696648234615 846.8680243920466 452.09696648234615L846.8680243920466 452.09696648234615Q837.4916590384554 452.09696648234615 830.5413462588702 448.796660728518Q823.5691771497895 445.4963549746899 819.0012042852195 439.72628398786446Q814.4332314206495 433.97806933053465 812.1601731531122 426.48134831356083Q809.9089712150704 418.98462729658695 809.9089712150704 410.613653099791L809.9089712150704 410.613653099791L809.9089712150704 407.3789163344495Q809.9089712150704 399.00794213765363 812.1601731531122 391.51122112067975Q814.4332314206495 384.01450010370587 819.0012042852195 378.26628544637606Q823.5691771497895 372.4962144595507 830.5413462588702 369.19590870572256Q837.4916590384554 365.8956029518944 846.8680243920466 365.8956029518944L846.8680243920466 365.8956029518944Q856.6159473470622 365.8956029518944 863.9159613985761 369.85159859058905Q871.21597545009 373.8075942292837 875.4123907132357 380.6049127024Q879.586949646886 387.40223117551625 879.9803635778057 396.0136249967632L879.9803635778057 396.0136249967632L866.4512956200599 396.0136249967632Q866.0797380186356 390.85553123581326 863.5662601266473 386.72468496115414Q861.0746385641545 382.57198235699957 856.8126543125221 380.0585044650112Q852.5506700608897 377.56688290251844 846.8680243920466 377.56688290251844L846.8680243920466 377.56688290251844Q840.3329818728769 377.56688290251844 835.9180033147757 380.1459297829934Q831.5030247566744 382.7249766634684 828.9239778761995 387.0525299035874Q826.3449309957246 391.401939473202 825.2302581914514 396.6693148816297Q824.1155853871783 401.9366902900574 824.1155853871783 407.3789163344495L824.1155853871783 407.3789163344495L824.1155853871783 410.613653099791Q824.1155853871783 416.0558791441831 825.1865455324603 421.36696721160195Q826.2575056777423 426.6780552790208 828.8365525582174 430.98375218964424Q831.4155994386923 435.2675927707721 835.8305779967935 437.84663965124713Q840.2455565548947 440.42568653172214 846.8680243920466 440.42568653172214ZM897.1157259023175 367.4255460165829L911.4097653924077 367.4255460165829L911.4097653924077 450.5670234176576L897.1157259023175 450.5670234176576L897.1157259023175 367.4255460165829ZM896.0447657570355 345.3725095555723L896.0447657570355 345.3725095555723Q896.0447657570355 341.9192094952753 898.1429733886084 339.5368695802603Q900.2630373496768 337.15452966524526 904.4157399538315 337.15452966524526L904.4157399538315 337.15452966524526Q908.4810172400039 337.15452966524526 910.6666501895589 339.5368695802603Q912.8741394686097 341.9192094952753 912.8741394686097 345.3725095555723L912.8741394686097 345.3725095555723Q912.8741394686097 348.6728153094005 910.6666501895589 351.03329889491994Q908.4810172400039 353.37192615094386 904.4157399538315 353.37192615094386L904.4157399538315 353.37192615094386Q900.2630373496768 353.37192615094386 898.1429733886084 351.03329889491994Q896.0447657570355 348.6728153094005 896.0447657570355 345.3725095555723ZM947.2104331061196 367.4255460165829L948.4343875578704 383.40252287783045L948.4343875578704 482.5428334696482L934.1403480677803 482.5428334696482L934.1403480677803 367.4255460165829L947.2104331061196 367.4255460165829ZM1004.4521600549668 408.29688217326265L1004.4521600549668 408.29688217326265L1004.4521600549668 409.9142505559334Q1004.4521600549668 418.98462729658695 1002.3102397644028 426.6999116085163Q1000.1464631443433 434.43705224994125 996.0374731991797 440.11969791878437Q991.9284832540163 445.80234358762755 985.9398489722354 448.94965503498685Q979.9512146904544 452.09696648234615 972.192217719534 452.09696648234615L972.192217719534 452.09696648234615Q964.2802264421447 452.09696648234615 958.2041668423816 449.49606327237564Q952.1281072426185 446.87330373290956 947.9098356499773 441.890060607924Q943.6697077278404 436.8849611534429 941.1780861653476 429.8909357148667Q938.6864646028548 422.8969102762905 937.7684987640417 414.15437847807027L937.7684987640417 414.15437847807027L937.7684987640417 405.54298465682325Q938.6864646028548 396.3196136097009 941.2217988243387 389.019599558187Q943.7571330458227 381.71958550667307 947.9316919794728 376.53963541622755Q952.1281072426185 371.3378289962865 958.1167415243995 368.6276441388382Q964.1272321356757 365.8956029518944 971.951798095083 365.8956029518944L971.951798095083 365.8956029518944Q979.7982203839856 365.8956029518944 985.8524236542532 368.9336327517759Q991.9284832540163 371.97166255165746 996.0811858581709 377.56688290251844Q1000.2338884623255 383.183959582875 1002.3539524233939 390.9866692127865Q1004.4521600549668 398.76752251320255 1004.4521600549668 408.29688217326265ZM990.1581205648766 409.9142505559334L990.1581205648766 409.9142505559334L990.1581205648766 408.29688217326265Q990.1581205648766 402.08968459652624 988.8685971246391 396.5818895636475Q987.557217354906 391.0959508602643 984.8251761679622 386.8995355971186Q982.0931349810185 382.7249766634684 977.8748633883772 380.2989240894623Q973.6347354662403 377.87287151545615 967.7990954909283 377.87287151545615L967.7990954909283 377.87287151545615Q962.4224384350229 377.87287151545615 958.4664427963282 379.730659522578Q954.5104471576335 381.5665912002042 951.7346933116987 384.6701899885724Q948.9807957952592 387.79564510643615 947.2541457651107 391.7516407451308Q945.5274957349623 395.7076363838255 944.6750988846358 399.92590797646676L944.6750988846358 399.92590797646676L944.6750988846358 419.8370241469134Q946.2050419493244 425.21368120281886 948.9807957952592 429.9346483738578Q951.7346933116987 434.6556155448967 956.3463788352598 437.5406510383094Q960.958064358821 440.42568653172214 967.9520897973971 440.42568653172214L967.9520897973971 440.42568653172214Q973.7221607842225 440.42568653172214 977.9185760473683 437.999633957716Q982.0931349810185 435.5735813837099 984.8251761679622 431.3553097910686Q987.557217354906 427.1370381984273 988.8685971246391 421.62924316554853Q990.1581205648766 416.14330446216536 990.1581205648766 409.9142505559334ZM1057.0822014802527 452.09696648234615L1057.0822014802527 452.09696648234615Q1048.405238670519 452.09696648234615 1041.367500572952 449.1463620004468Q1034.35161880488 446.19575751854745 1029.3246630209035 440.81910046264204Q1024.2758509074313 435.420587077241 1021.5875223794785 428.05500403724045Q1018.8991938515258 420.66756466774433 1018.8991938515258 411.92503286952405L1018.8991938515258 411.92503286952405L1018.8991938515258 408.6902961041826Q1018.8991938515258 398.5489592182471 1021.8935109924162 390.5932552818666Q1024.8878281333066 382.6375513454862 1030.0459218942565 377.1078999831119Q1035.182159325711 371.57824862073755 1041.7172018448807 368.73692578631596Q1048.2522443640503 365.8956029518944 1055.2462698026266 365.8956029518944L1055.2462698026266 365.8956029518944Q1064.1636522368112 365.8956029518944 1070.6549820969897 368.9554890812715Q1077.1463119571683 372.03723154014415 1081.2990145613228 377.5231702435273Q1085.4517171654775 383.0309652764061 1087.4406431495727 390.4402609753978Q1089.4295691336677 397.8495566743894 1089.4295691336677 406.61394480210527L1089.4295691336677 406.61394480210527L1089.4295691336677 412.99599301480606L1027.357593366304 412.99599301480606L1027.357593366304 401.3902820526687L1075.2229549615597 401.3902820526687L1075.2229549615597 400.31932190738667Q1074.916966348622 394.78967054501237 1072.9498966940225 389.56600779557573Q1071.0046833689184 384.34234504613914 1066.7645554467817 380.95461397432877Q1062.5462838541403 377.56688290251844 1055.2462698026266 377.56688290251844L1055.2462698026266 377.56688290251844Q1050.4160209841098 377.56688290251844 1046.3288873684419 379.59952154560466Q1042.2636100822695 381.6321601886909 1039.3348619298656 385.6318684863766Q1036.4279701069574 389.6315767840624 1034.8106017242867 395.4016477708878Q1033.193233341616 401.1498624282176 1033.193233341616 408.6902961041826L1033.193233341616 408.6902961041826L1033.193233341616 411.92503286952405Q1033.193233341616 417.82624183332274 1034.8543143832778 423.0280482532638Q1036.493539095444 428.2079983437093 1039.6845632017944 432.1202813234129Q1042.8755873081448 436.054420632612 1047.443560172715 438.2619099116626Q1052.011533037285 440.49125552020877 1057.8690293420925 440.49125552020877L1057.8690293420925 440.49125552020877Q1065.387606688562 440.49125552020877 1070.6112694379985 437.43136939083166Q1075.8349321874352 434.34962693195905 1079.7690714966343 429.2133895005046L1079.7690714966343 429.2133895005046L1088.3586089883856 436.054420632612Q1085.6702804604329 440.11969791878437 1081.5175778562784 443.81341760353246Q1077.3867315816192 447.485280958785 1071.3543846408475 449.80205188531335Q1065.3220377000753 452.09696648234615 1057.0822014802527 452.09696648234615ZM1108.1822998408502 338.6844727299339L1123.0227475683291 338.6844727299339L1123.0227475683291 450.5670234176576L1108.1822998408502 450.5670234176576L1108.1822998408502 338.6844727299339ZM1119.7880108029876 389.019599558187L1169.8827180067897 389.019599558187L1169.8827180067897 401.1498624282176L1119.7880108029876 401.1498624282176L1119.7880108029876 389.019599558187ZM1119.7880108029876 338.6844727299339L1177.4887206712413 338.6844727299339L1177.4887206712413 350.83659192946L1119.7880108029876 350.83659192946L1119.7880108029876 338.6844727299339ZM1194.1651000763463 367.4255460165829L1208.4591395664365 367.4255460165829L1208.4591395664365 450.5670234176576L1194.1651000763463 450.5670234176576L1194.1651000763463 367.4255460165829ZM1193.0941399310645 345.3725095555723L1193.0941399310645 345.3725095555723Q1193.0941399310645 341.9192094952753 1195.214203892133 339.5368695802603Q1197.3124115237056 337.15452966524526 1201.4651141278605 337.15452966524526L1201.4651141278605 337.15452966524526Q1205.5522477435284 337.15452966524526 1207.7378806930833 339.5368695802603Q1209.9235136426385 341.9192094952753 1209.9235136426385 345.3725095555723L1209.9235136426385 345.3725095555723Q1209.9235136426385 348.6728153094005 1207.7378806930833 351.03329889491994Q1205.5522477435284 353.37192615094386 1201.4651141278605 353.37192615094386L1201.4651141278605 353.37192615094386Q1197.3124115237056 353.37192615094386 1195.214203892133 351.03329889491994Q1193.0941399310645 348.6728153094005 1193.0941399310645 345.3725095555723ZM1244.7406465290505 367.4255460165829L1245.505618061395 385.1728855669701L1245.505618061395 450.5670234176576L1231.2771475597915 450.5670234176576L1231.2771475597915 367.4255460165829L1244.7406465290505 367.4255460165829ZM1242.1178869895846 405.84897326976096L1242.1178869895846 405.84897326976096L1236.1948216962903 405.60855364530994Q1236.2822470142723 397.08458514204517 1238.730155917774 389.82828374952237Q1241.1999211507714 382.57198235699957 1245.6586123678637 377.1953253010941Q1250.117303584956 371.79681191569307 1256.302644832197 368.8462074337937Q1262.4879860794376 365.8956029518944 1270.0065634259072 365.8956029518944L1270.0065634259072 365.8956029518944Q1276.1481920141568 365.8956029518944 1281.065866150656 367.5348276640607Q1285.9835402871547 369.19590870572256 1289.4805530064427 372.8022030724884Q1292.977565725731 376.40849743925423 1294.8353537328526 382.13485576708854Q1296.671285410479 387.8612140949228 1296.671285410479 396.07919398524984L1296.671285410479 396.07919398524984L1296.671285410479 450.5670234176576L1282.3772459203888 450.5670234176576L1282.3772459203888 395.926199678781Q1282.3772459203888 389.4130134891069 1280.4538889247806 385.4570178504122Q1278.530531929172 381.479165882222 1274.8586685739194 379.68694686358685Q1271.1649488891715 377.87287151545615 1265.788291833266 377.87287151545615L1265.788291833266 377.87287151545615Q1260.4772037658472 377.87287151545615 1256.149650525728 380.1022171240023Q1251.8002409561136 382.3315627325485 1248.6966421677453 386.24384571225204Q1245.5711870498815 390.17798502145115 1243.8445370197333 395.20494080542784Q1242.1178869895846 400.23189658940447 1242.1178869895846 405.84897326976096ZM1371.8133462161823 450.5670234176576L1370.5893917644312 434.43705224994125L1370.5893917644312 332.5428441416841L1384.8834312545214 332.5428441416841L1384.8834312545214 450.5670234176576L1371.8133462161823 450.5670234176576ZM1314.6590445853171 409.9142505559334L1314.6590445853171 409.9142505559334L1314.6590445853171 408.29688217326265Q1314.6590445853171 398.76752251320255 1316.9976718413411 390.9866692127865Q1319.336299097365 383.183959582875 1323.6857086669797 377.56688290251844Q1328.0351182365941 371.97166255165746 1334.0456088478704 368.9336327517759Q1340.0779557886426 365.8956029518944 1347.5309641466256 365.8956029518944L1347.5309641466256 365.8956029518944Q1355.377386435528 365.8956029518944 1361.2567390698312 368.6276441388382Q1367.1360917041343 371.3378289962865 1371.2450816492978 376.53963541622755Q1375.3540715944614 381.71958550667307 1377.7364115094765 389.019599558187Q1380.1187514244912 396.3196136097009 1381.0367172633046 405.54298465682325L1381.0367172633046 405.54298465682325L1381.0367172633046 412.6025790838861Q1380.2061767424734 421.76038114252185 1377.7801241684674 429.0603951940358Q1375.3540715944614 436.3604092455497 1371.2450816492978 441.4966466770041Q1367.1360917041343 446.65474043795405 1361.21302641084 449.3867816248979Q1355.3118174470414 452.09696648234615 1347.3779698401565 452.09696648234615L1347.3779698401565 452.09696648234615Q1340.0779557886426 452.09696648234615 1334.0456088478704 448.94965503498685Q1328.0351182365941 445.80234358762755 1323.6857086669797 440.11969791878437Q1319.336299097365 434.43705224994125 1316.9976718413411 426.6999116085163Q1314.6590445853171 418.98462729658695 1314.6590445853171 409.9142505559334ZM1328.9530840754073 408.29688217326265L1328.9530840754073 408.29688217326265L1328.9530840754073 409.9142505559334Q1328.9530840754073 416.14330446216536 1330.2207511861493 421.607386836053Q1331.488418296891 427.0496128804451 1334.176746824844 431.20231548459975Q1336.8650753527968 435.3550180887544 1341.0177779569512 437.69364534477825Q1345.1486242316105 440.03227260080223 1350.9186952184357 440.03227260080223L1350.9186952184357 440.03227260080223Q1358.0001459749942 440.03227260080223 1362.5681188395642 437.03795545991176Q1367.1360917041343 434.04363831902134 1369.9118455500693 429.1259641825224Q1372.6657430665086 424.20829004602354 1374.1956861311971 418.43821905919816L1374.1956861311971 418.43821905919816L1374.1956861311971 399.92590797646676Q1373.277720292384 395.7076363838255 1371.5510702622355 391.7516407451308Q1369.824420232087 387.79564510643615 1367.0923790451432 384.6701899885724Q1364.3603378581993 381.5665912002042 1360.4043422195048 379.730659522578Q1356.44834658081 377.87287151545615 1351.0716895249045 377.87287151545615L1351.0716895249045 377.87287151545615Q1345.2360495495925 377.87287151545615 1341.039634286447 380.2989240894623Q1336.8650753527968 382.7249766634684 1334.176746824844 386.8995355971186Q1331.488418296891 391.0959508602643 1330.2207511861493 396.5818895636475Q1328.9530840754073 402.08968459652624 1328.9530840754073 408.29688217326265ZM1441.4476119890064 452.09696648234615L1441.4476119890064 452.09696648234615Q1432.7487928497774 452.09696648234615 1425.7329110817054 449.1463620004468Q1418.6951729841383 446.19575751854745 1413.6682172001615 440.81910046264204Q1408.6194050866893 435.420587077241 1405.9310765587365 428.05500403724045Q1403.242748030784 420.66756466774433 1403.242748030784 411.92503286952405L1403.242748030784 411.92503286952405L1403.242748030784 408.6902961041826Q1403.242748030784 398.5489592182471 1406.2370651716744 390.5932552818666Q1409.2532386420603 382.6375513454862 1414.3894760735147 377.1078999831119Q1419.5475698344646 371.57824862073755 1426.0607560241388 368.73692578631596Q1432.5957985433085 365.8956029518944 1439.5898239818848 365.8956029518944L1439.5898239818848 365.8956029518944Q1448.5072064160695 365.8956029518944 1454.998536276248 368.9554890812715Q1461.4898661364264 372.03723154014415 1465.6425687405808 377.5231702435273Q1469.7952713447357 383.0309652764061 1471.7841973288307 390.4402609753978Q1473.7949796424214 397.8495566743894 1473.7949796424214 406.61394480210527L1473.7949796424214 406.61394480210527L1473.7949796424214 412.99599301480606L1411.701147545562 412.99599301480606L1411.701147545562 401.3902820526687L1459.5665091408182 401.3902820526687L1459.5665091408182 400.31932190738667Q1459.2605205278803 394.78967054501237 1457.3153072027762 389.56600779557573Q1455.3482375481767 384.34234504613914 1451.1299659555355 380.95461397432877Q1446.8898380333985 377.56688290251844 1439.5898239818848 377.56688290251844L1439.5898239818848 377.56688290251844Q1434.759575163368 377.56688290251844 1430.6724415477 379.59952154560466Q1426.6071642615275 381.6321601886909 1423.6784161091236 385.6318684863766Q1420.7715242862155 389.6315767840624 1419.1541559035447 395.4016477708878Q1417.536787520874 401.1498624282176 1417.536787520874 408.6902961041826L1417.536787520874 408.6902961041826L1417.536787520874 411.92503286952405Q1417.536787520874 417.82624183332274 1419.1978685625359 423.0280482532638Q1420.837093274702 428.2079983437093 1424.0281173810527 432.1202813234129Q1427.219141487403 436.054420632612 1431.7871143519733 438.2619099116626Q1436.3769435460385 440.49125552020877 1442.2125835213506 440.49125552020877L1442.2125835213506 440.49125552020877Q1449.73116086782 440.49125552020877 1454.9548236172568 437.43136939083166Q1460.1784863666933 434.34962693195905 1464.1126256758926 429.2133895005046L1464.1126256758926 429.2133895005046L1472.702163167644 436.054420632612Q1470.0138346396911 440.11969791878437 1465.882988365032 443.81341760353246Q1461.7302857608775 447.485280958785 1455.6979388201055 449.80205188531335Q1449.6655918793335 452.09696648234615 1441.4476119890064 452.09696648234615ZM1504.2189903002281 367.4255460165829L1504.5905479016524 380.4956310549222L1504.5905479016524 450.5670234176576L1490.3839337295444 450.5670234176576L1490.3839337295444 367.4255460165829L1504.2189903002281 367.4255460165829ZM1530.577723671862 366.9665630971764L1530.577723671862 366.9665630971764L1530.4902983538798 380.1896424419845Q1528.7199356647402 379.7962285110646 1527.1462799410606 379.68694686358685Q1525.572624217381 379.5776652161091 1523.5836982332858 379.5776652161091L1523.5836982332858 379.5776652161091Q1518.666024096787 379.5776652161091 1514.9067354235522 381.10760828079765Q1511.125590420822 382.6375513454862 1508.5246872108514 385.4133051914211Q1505.9019276713852 388.1672027078605 1504.4156972656879 391.9702040400863Q1502.9076105304948 395.77320537231213 1502.4486276110883 400.31932190738667L1502.4486276110883 400.31932190738667L1498.4489193134027 402.61423650441947Q1498.4489193134027 395.0956591579501 1499.9570060485958 388.4731913207982Q1501.4432364542931 381.8725798131419 1504.5905479016524 376.75819871118307Q1507.7597156785073 371.64381760922424 1512.633677156015 368.7806384453071Q1517.5076386335227 365.8956029518944 1524.261244447648 365.8956029518944L1524.261244447648 365.8956029518944Q1525.813043841832 365.8956029518944 1527.801969825927 366.2453042238232Q1529.8127521395177 366.5731491662565 1530.577723671862 366.9665630971764Z "
      fill="#ffffff" transform="matrix(0.5716796017224908,0,0,0.5716796017224909,0,67.01607967104484)" />
  </g>
</svg>